# xmcd
#
# Track frame offsets:
#	150
#	17797
#	32937
#	47896
#	60076
#	75609
#	89676
#	106826
#	119751
#	128073
#	143183
#	158482
#	172168
#	184127
#	195597
#	208184
#	217836
#	235121
#	251859
#	267373
#
# Disc length: 3729 seconds
#
# Revision: 0
# Processed by: cddbd v1.5.2PL0 Copyright (c) Steve Scherf et al.
# Submitted via: EasyCDDAExtractor 16.0.6.1
#
DISCID=200e8f14
DTITLE=Συλλογικός δίσκος - Τα μεγάλα τραγούδια-Μ. Θεοδωράκης 06
DYEAR=2010
DGENRE=Λαϊκή
TTITLE0=Μητσιάς Μανώλης - Δραπετσώνα [Τάσος Λειβαδίτης]
TTITLE1=Φαραντούρη Μαρία - Της αγάπης αίματα [Οδυσσέας Ελύτης]
TTITLE2=Πουλόπουλος Γιάννης - Το ψωμί είναι στο τραπέζι [Ιάκ. Καμπανέλλης]
TTITLE3=Καρέζη Τζένη - Άνοιξε λίγο το παράθυρο [Brendan Francis Behan, απ.Ρώτα
TTITLE3=ς-Δαμιανάκου]
TTITLE4=Βενετσάνου Νένα - Γλυκέ μου εσύ, δε χάθηκες [Γιάννης Ρίτσος]
TTITLE5=Πουλόπουλος Γιάννης - Τ' όνειρο καπνός [Νίκος Γκάτσος]
TTITLE6=Γλυκερία - Στράτα, τη στράτα [Νίκος Γκάτσος]
TTITLE7=Δημητριάδη Μαρία - Κόσμε άσωτε [Μάνος Ελευθερίου]
TTITLE8=Ζώη Μαρία - Σ' αυτή τη γειτονιά [Μάνος Ελευθερίου]
TTITLE9=Αρλέτα - Του άνεμου [Φ. Γ. Λόρκα, απ. Οδ. Ελύτης]
TTITLE10=Μπιρμπίλη Σούλα - Από το παράθυρό σου [Ιάκ. Καμπανέλλης]
TTITLE11=Θεοδωράκης Μίκης - Του Χάρου η μάννα [Μάνος Ελευθερίου]
TTITLE12=Ζορμπαλά Μαργαρίτα - Στο στήθος μου η πληγή [Γιώργος Σεφέρης]
TTITLE13=Πασπαράκης Σταύρος-Δημητριάδη Μαρία - Το χτίσιμο [Γιάννης Ρίτσος]
TTITLE14=Μητσιάς Μανώλης - Την πόρτα ανοίγω το βράδυ [Τάσος Λειβαδίτης]
TTITLE15=Αρλέτα - Του πικραμένου [Φ. Γ. Λόρκα, απ. Οδ. Ελύτης]
TTITLE16=Ζορμπαλά Μαργαρίτα - Το εκκρεμές [Νίκος Γκάτσος]
TTITLE17=Καζαντζίδης Στέλιος - Άπονες εξουσίες [Μιχάλης Κακογιάννης]
TTITLE18=Δημητριάδη Μαρία - Ματωμένο φεγγάρι [Νίκος Γκάτσος]
TTITLE19=Άνευ ερμηνευτού - Δρόμοι που χάθηκα [οργανικό]
EXTD=
EXTT0=
EXTT1=
EXTT2=
EXTT3=
EXTT4=
EXTT5=
EXTT6=
EXTT7=
EXTT8=
EXTT9=
EXTT10=
EXTT11=
EXTT12=
EXTT13=
EXTT14=
EXTT15=
EXTT16=
EXTT17=
EXTT18=
EXTT19=
PLAYORDER=
